<svg xmlns="http://www.w3.org/2000/svg" xmlns:xlink="http://www.w3.org/1999/xlink" viewBox="0 0 40 40"><defs><style>.cls-1{fill:none;}.cls-2{clip-path:url(#clip-path);}.cls-3{fill:#c7483d;}.cls-4{fill:#fff;}.cls-5{fill:#ffde0d;}.cls-6{fill:#fedc0c;}.cls-7{fill:#fedb0c;}</style><clipPath id="clip-path"><circle class="cls-1" cx="20" cy="20" r="20"/></clipPath></defs><g id="Capa_2" data-name="Capa 2"><g id="Capa_1-2" data-name="Capa 1"><g class="cls-2"><path class="cls-3" d="M65.14,47.94H2.61A6.34,6.34,0,0,1-.14,47a6.26,6.26,0,0,1-2.8-5.2q0-18,0-36C-2.94,3.11-1.52,1.38.66.12A5.62,5.62,0,0,1,3.53-.37h60.8A6,6,0,0,1,68,.6a5.87,5.87,0,0,1,2.74,4.55V42.63a6.05,6.05,0,0,1-3,4.57A6.54,6.54,0,0,1,65.14,47.94Z"/><path class="cls-4" d="M70.75,5.15c-.22-.11-.15-.33-.2-.5A6.72,6.72,0,0,0,64.06-.3q-30.14,0-60.28,0A6.62,6.62,0,0,0-2.85,6.32V41.06a6.6,6.6,0,0,0,5,6.68c.15,0,.34,0,.43.2H-3Q-3,24-3,.08c0-.46.13-.54.56-.54q36.32,0,72.63,0c.49,0,.59.1.58.59C70.72,1.8,70.75,3.48,70.75,5.15Z"/><path class="cls-5" d="M13.56,16c-1.05-.72-1.94-1.3-2.78-1.94a.85.85,0,0,0-1.24,0,16.93,16.93,0,0,1-2.63,1.75c.32-1,.61-2,1-3a.81.81,0,0,0-.36-1.12A18.75,18.75,0,0,1,5,9.59c1,0,1.92-.06,2.88,0A1,1,0,0,0,9.2,8.68a13.77,13.77,0,0,1,1-2.75c.26.75.52,1.49.79,2.23.51,1.43.51,1.43,2.07,1.43h2.28l.08.14c-.86.62-1.69,1.28-2.57,1.86a.88.88,0,0,0-.41,1.28C12.86,13.81,13.15,14.79,13.56,16Z"/><path class="cls-6" d="M19.83,5.7c-.62-1-1.32-1-2.2-.39A1.46,1.46,0,0,0,17.32,3c1.05.46,1.68.13,2.08-.92A1.48,1.48,0,0,0,21,3.73C19.87,4,19.61,4.66,19.83,5.7Z"/><path class="cls-7" d="M23.37,16.08c-.8-1-1.46-.6-2.17,0,.35-.91.39-1.68-.66-2.16.49-.3,1,.1,1.3-.21a5.1,5.1,0,0,0,.55-1.32c.13,1.15.55,1.74,1.71,1.46C23.25,14.41,22.71,15,23.37,16.08Z"/><path class="cls-7" d="M24.7,10.14c-1-.66-1.61-.34-2.17.56.16-1,.09-1.81-1.16-2,1-.11,1.61-.53,1.46-1.69a1.47,1.47,0,0,0,2.09.91C24.2,8.61,23.86,9.29,24.7,10.14Z"/><path class="cls-6" d="M16.84,19.73c.72-.65,1.14-1.32.22-2.21a1.39,1.39,0,0,0,2.09-.65c.23.54-.23,1,.1,1.32a5.72,5.72,0,0,0,1.32.61c-1.2.13-1.76.66-1.68,1.74-.24-.34-.41-.79-.74-1S17.38,19.83,16.84,19.73Z"/></g></g></g></svg>