<svg xmlns="http://www.w3.org/2000/svg" xmlns:xlink="http://www.w3.org/1999/xlink" viewBox="0 0 40 40"><defs><style>.cls-1{fill:none;}.cls-2{clip-path:url(#clip-path);}.cls-3{fill:#c7483d;}.cls-4{fill:#fff;}</style><clipPath id="clip-path"><circle class="cls-1" cx="20" cy="20" r="20"/></clipPath></defs><g id="Capa_2" data-name="Capa 2"><g id="Capa_1-2" data-name="Capa 1"><g class="cls-2"><path class="cls-3" d="M20,20Q1.61,20-16.74,20c-.71,0-.88-.17-.88-.88,0-5.28,0-10.57,0-15.85a3.09,3.09,0,0,1,3-3.23H54.05c1.83,0,3,.78,3.45,2.27a2.9,2.9,0,0,1,.1.88c0,5.35,0,10.71,0,16.06,0,.66-.23.74-.8.74Z"/><path class="cls-4" d="M20,20Q1.61,20-16.74,20c-.71,0-.88.17-.88.88,0,5.28,0,10.57,0,15.85a3.09,3.09,0,0,0,3,3.23c.17,0,.34,0,.51,0H54.05c1.83,0,3-.78,3.45-2.27a2.9,2.9,0,0,0,.1-.88c0-5.35,0-10.71,0-16.06,0-.66-.23-.74-.8-.74Z"/></g></g></g></svg>