<svg xmlns="http://www.w3.org/2000/svg" xmlns:xlink="http://www.w3.org/1999/xlink" viewBox="0 0 40 40"><defs><style>.cls-1{fill:none;}.cls-2{clip-path:url(#clip-path);}.cls-3{fill:#c7483d;}.cls-4{fill:#fff;}</style><clipPath id="clip-path"><circle class="cls-1" cx="20" cy="20" r="20"/></clipPath></defs><g id="Capa_2" data-name="Capa 2"><g id="Capa_1-2" data-name="Capa 1"><g class="cls-2"><path class="cls-3" d="M23,40H-1.59c-1.3,0-2.17-.84-2.45-2.35a4.35,4.35,0,0,1-.07-.88V3.26c0-1.84.86-3.12,2.18-3.25H47.64c1.25,0,2.12.86,2.4,2.35a4.35,4.35,0,0,1,.07.88V36.52c0,2.23-.89,3.48-2.5,3.48Z"/><path class="cls-4" d="M22.42,25.28a9,9,0,0,1-9.69,3.63,9.18,9.18,0,0,1-.37-17.71c3.73-1.12,8.15.42,10.06,3.53A7.39,7.39,0,0,0,17,12.67a7.08,7.08,0,0,0-5.24,2.53A7.36,7.36,0,0,0,22.42,25.28Z"/><path class="cls-4" d="M30.45,17.42c-.51.7-1,1.42-1.54,2.09a.67.67,0,0,0,0,1c.54.67,1,1.39,1.62,2.21-1-.33-1.88-.6-2.74-.9a.52.52,0,0,0-.74.23c-.51.76-1.07,1.49-1.72,2.38,0-1,0-1.86,0-2.71a.75.75,0,0,0-.67-.91A13.7,13.7,0,0,1,22.34,20c.85-.28,1.69-.57,2.54-.82a.55.55,0,0,0,.48-.66c0-.91,0-1.81,0-2.77a2.69,2.69,0,0,1,.65.76c.37.5.76,1,1.09,1.51a.5.5,0,0,0,.69.22c.86-.3,1.74-.58,2.61-.86Z"/></g></g></g></svg>